<svg class="icon" style="width: 1em;height: 1em;vertical-align: middle;fill: #91d5ff;overflow: hidden;" viewBox="0 0 1024 1024" version="1.1" xmlns="http://www.w3.org/2000/svg" p-id="2169"><path d="M896 8c-25.6-12.8-56-8-76.8 4.8L171.2 491.2v-448C171.2 17.6 153.6 0 128 0S84.8 17.6 84.8 43.2v939.2C84.8 1006.4 102.4 1024 128 1024s43.2-17.6 43.2-43.2v-448l648 478.4c12.8 8 30.4 12.8 43.2 12.8s20.8-4.8 33.6-8c25.6-12.8 43.2-38.4 43.2-68.8V72c0-25.6-17.6-51.2-43.2-64z m-43.2 918.4L286.4 512 852.8 97.6v828.8z" p-id="2170"></path></svg>