<svg class="icon" style="width: 1em;height: 1em;vertical-align: middle;fill: #91d5ff;overflow: hidden;" viewBox="0 0 1024 1024" version="1.1" xmlns="http://www.w3.org/2000/svg" p-id="1792"><path d="M897.6 0c-25.6 0-43.2 17.6-43.2 43.2v443.2L206.4 17.6C180.8 0 150.4 0 124.8 12.8c-20.8 12.8-38.4 38.4-38.4 64v865.6c0 30.4 17.6 56 38.4 68.8 12.8 4.8 20.8 8 33.6 8 17.6 0 30.4-4.8 43.2-12.8l648-468.8v443.2c0 25.6 17.6 43.2 43.2 43.2s43.2-17.6 43.2-43.2V43.2c4.8-25.6-12.8-43.2-38.4-43.2zM172.8 926.4V97.6L744 512 172.8 926.4z" p-id="1793"></path></svg>