<svg class="icon" style="width: 1em;height: 1em;vertical-align: middle;fill: #91d5ff;overflow: hidden;" viewBox="0 0 1024 1024" version="1.1" xmlns="http://www.w3.org/2000/svg" p-id="3900"><path d="M512 62C263.496 62 62 263.496 62 512s201.496 450 450 450 450-201.496 450-450S760.504 62 512 62z m0 823.66c-206.317 0-373.66-167.343-373.66-373.66S305.682 138.34 512 138.34 885.66 305.682 885.66 512 718.318 885.66 512 885.66z m-88.393-534.374h-48.214c-4.42 0-8.036 3.616-8.036 8.035V664.68c0 4.42 3.616 8.035 8.036 8.035h48.214c4.42 0 8.036-3.616 8.036-8.035V359.32c0-4.42-3.616-8.035-8.036-8.035z m225 0h-48.214c-4.42 0-8.036 3.616-8.036 8.035V664.68c0 4.42 3.616 8.035 8.036 8.035h48.214c4.42 0 8.036-3.616 8.036-8.035V359.32c0-4.42-3.616-8.035-8.036-8.035z" p-id="3901"></path></svg>