<svg class="icon" style="width: 1em;height: 1em;vertical-align: middle;fill: currentColor;overflow: hidden;" viewBox="0 0 1024 1024" version="1.1" xmlns="http://www.w3.org/2000/svg" p-id="1589"><path d="M503.68 970.88c-36.48 0-67.84-22.4-80-56.32l-30.08-84.48c-2.56-7.68-8.32-10.88-11.52-12.16-3.2-1.28-9.6-3.2-16.64 0.64l-81.28 38.4c-32.64 15.36-70.4 8.96-96.64-16.64-25.6-25.6-32-63.36-16.64-96.64l38.4-81.28c3.2-7.04 1.92-13.44 0.64-16.64-1.28-3.2-4.48-8.96-12.16-11.52l-84.48-30.08c-34.56-12.16-56.32-43.52-56.32-80s22.4-67.84 56.32-80l84.48-30.08c7.68-2.56 10.88-8.32 12.16-11.52s3.2-9.6-0.64-16.64l-38.4-81.28c-15.36-32.64-8.96-70.4 16.64-96.64 25.6-25.6 63.36-32 96.64-16.64l81.28 38.4c7.04 3.2 13.44 1.92 16.64 0.64 3.2-1.28 8.96-4.48 11.52-12.16l30.08-84.48C435.84 98.56 467.2 76.8 503.68 76.8s67.84 22.4 80 56.32L613.76 217.6c2.56 7.68 8.32 10.88 11.52 12.16 3.2 1.28 9.6 3.2 16.64-0.64l81.28-38.4c32.64-15.36 70.4-8.96 96.64 16.64 25.6 25.6 32 63.36 16.64 96.64l-38.4 81.28c-3.2 7.04-1.92 13.44-0.64 16.64 1.28 3.2 4.48 8.96 12.16 11.52l84.48 30.08c34.56 12.16 56.32 43.52 56.32 80s-22.4 67.84-56.32 80L809.6 633.6c-7.68 2.56-10.88 8.32-12.16 11.52s-3.2 9.6 0.64 16.64l38.4 81.28c15.36 32.64 8.96 70.4-16.64 96.64-25.6 25.6-63.36 32-96.64 16.64l-81.28-38.4c-7.04-3.2-13.44-1.92-16.64-0.64-3.2 1.28-8.96 4.48-11.52 12.16l-30.08 84.48c-12.16 34.56-44.16 56.96-80 56.96z m-129.92-218.88c10.88 0 21.76 1.92 32.64 6.4 22.4 8.96 39.68 27.52 47.36 49.92l30.08 84.48c4.48 12.8 15.36 14.08 19.84 14.08s15.36-1.28 19.84-14.08l30.08-84.48c8.32-22.4 25.6-40.96 47.36-49.92 22.4-8.96 47.36-8.32 69.12 1.92l81.28 38.4c12.16 5.76 20.48-1.28 23.68-3.84 3.2-3.2 9.6-11.52 3.84-23.68l-38.4-81.28c-10.24-21.76-10.88-46.72-1.92-69.12 8.96-22.4 27.52-39.68 49.92-47.36l84.48-30.08c12.8-4.48 14.08-15.36 14.08-19.84 0-4.48-1.28-15.36-14.08-19.84L787.84 473.6c-22.4-8.32-40.96-25.6-49.92-47.36-8.96-22.4-8.32-47.36 1.92-69.12l38.4-81.28c5.76-12.16-1.28-20.48-3.84-23.68-3.2-3.2-11.52-9.6-23.68-3.84l-81.28 38.4c-21.76 10.24-46.72 10.88-69.12 1.92-22.4-8.96-39.68-27.52-47.36-49.92l-30.08-84.48c-4.48-12.8-15.36-14.08-19.84-14.08s-15.36 1.28-19.84 14.08l-30.08 84.48c-8.32 22.4-25.6 40.96-47.36 49.92-22.4 8.96-47.36 8.32-69.12-1.92l-81.28-38.4c-12.16-5.76-20.48 0.64-23.68 3.84s-9.6 11.52-3.84 23.68l38.4 81.28c10.24 21.76 10.88 46.72 1.92 69.12-8.96 22.4-27.52 39.68-49.92 47.36L134.4 503.68c-12.8 4.48-14.08 15.36-14.08 19.84 0 4.48 1.28 15.36 14.08 19.84l84.48 30.08c22.4 8.32 40.96 25.6 49.92 47.36 8.96 22.4 8.32 47.36-1.92 69.12l-38.4 81.28c-5.76 12.16 0.64 20.48 3.84 23.68s11.52 9.6 23.68 3.84l81.28-38.4c11.52-5.76 24.32-8.32 36.48-8.32z" fill="#515151" p-id="1590"></path><path d="M503.68 706.56c-100.48 0-182.4-81.92-182.4-182.4S403.2 341.76 503.68 341.76s182.4 81.92 182.4 182.4-81.92 182.4-182.4 182.4z m0-301.44c-65.28 0-118.4 53.12-118.4 118.4s53.12 118.4 118.4 118.4S622.08 588.8 622.08 523.52s-53.12-118.4-118.4-118.4z" fill="#000" p-id="1591"></path></svg>