<svg class="icon" style="width: 1em;height: 1em;vertical-align: middle;fill: #91d5ff;overflow: hidden;" viewBox="0 0 1024 1024" version="1.1" xmlns="http://www.w3.org/2000/svg" p-id="2708"><path d="M554.666667 308.053333L409.728 426.666667H256v170.666666h153.728L554.666667 715.946667V308.053333zM379.264 682.666667H213.333333a42.666667 42.666667 0 0 1-42.666666-42.666667V384a42.666667 42.666667 0 0 1 42.666666-42.666667h165.930667l225.877333-184.832a21.333333 21.333333 0 0 1 34.858667 16.512v677.973334a21.333333 21.333333 0 0 1-34.858667 16.512L379.306667 682.666667z m425.557333 25.216l-60.672-60.672A170.368 170.368 0 0 0 810.666667 512c0-61.013333-32-114.56-80.213334-144.725333l61.397334-61.397334A255.616 255.616 0 0 1 896 512c0 78.592-35.413333 148.906667-91.178667 195.882667z" p-id="2709"></path></svg>